<?xml version="1.0" encoding="UTF-8"?>
<svg xmlns="http://www.w3.org/2000/svg" xmlns:xlink="http://www.w3.org/1999/xlink" width="375pt" height="374.999991pt" viewBox="0 0 375 374.999991" version="1.2">
<defs>
<clipPath id="clip1">
  <path d="M 123.714844 90.5 L 251.214844 90.5 L 251.214844 204.5 L 123.714844 204.5 Z M 123.714844 90.5 "/>
</clipPath>
</defs>
<g id="surface1">
<g clip-path="url(#clip1)" clip-rule="nonzero">
<path style=" stroke:none;fill-rule:nonzero;fill:rgb(100%,100%,100%);fill-opacity:1;" d="M 206.0625 152.3125 C 208.683594 152.3125 210.816406 150.1875 210.816406 147.570312 C 210.816406 144.953125 208.683594 142.828125 206.0625 142.828125 C 203.441406 142.828125 201.308594 144.953125 201.308594 147.570312 C 201.308594 150.1875 203.445312 152.3125 206.0625 152.3125 Z M 206.0625 146.316406 C 206.753906 146.316406 207.316406 146.878906 207.316406 147.566406 C 207.316406 148.257812 206.753906 148.816406 206.0625 148.816406 C 205.371094 148.816406 204.8125 148.257812 204.8125 147.566406 C 204.8125 146.882812 205.371094 146.316406 206.0625 146.316406 Z M 170.496094 142.828125 C 167.875 142.828125 165.742188 144.953125 165.742188 147.570312 C 165.742188 150.1875 167.875 152.3125 170.496094 152.3125 C 173.121094 152.3125 175.25 150.1875 175.25 147.570312 C 175.25 144.953125 173.121094 142.828125 170.496094 142.828125 Z M 170.496094 148.820312 C 169.808594 148.820312 169.246094 148.261719 169.246094 147.570312 C 169.246094 146.882812 169.808594 146.320312 170.496094 146.320312 C 171.191406 146.320312 171.753906 146.882812 171.753906 147.570312 C 171.753906 148.257812 171.191406 148.820312 170.496094 148.820312 Z M 250.058594 199.09375 C 248.484375 198.496094 246.925781 197.960938 245.375 197.476562 L 247.65625 183.238281 C 247.804688 182.304688 247.191406 181.425781 246.265625 181.246094 C 237.082031 179.449219 228.730469 179.769531 221.363281 181.277344 C 221.671875 180.605469 221.96875 179.917969 222.25 179.21875 C 235.101562 175.777344 245.417969 177.613281 245.605469 177.644531 C 246.550781 177.8125 247.46875 177.199219 247.648438 176.253906 C 247.828125 175.308594 247.210938 174.394531 246.261719 174.210938 C 246.078125 174.175781 236.261719 172.414062 223.640625 175.285156 C 225.542969 169.128906 226.519531 162.046875 226.519531 154.15625 C 226.519531 152.203125 226.484375 150.453125 226.40625 148.8125 C 226.492188 148.070312 226.535156 147.316406 226.535156 146.550781 C 226.535156 144.664062 226.273438 142.835938 225.785156 141.097656 C 225.828125 140.964844 225.867188 140.820312 225.875 140.667969 C 226.839844 124.328125 233.675781 118.328125 233.738281 118.28125 C 234.300781 117.8125 234.519531 117.035156 234.265625 116.34375 C 234.015625 115.648438 233.402344 115.148438 232.609375 115.191406 C 221.246094 115.191406 212.621094 117.203125 206.078125 120.167969 L 206.078125 113.386719 C 209.390625 112.039062 213.199219 110.792969 217.597656 109.734375 C 218.382812 109.542969 218.933594 108.84375 218.933594 108.039062 C 218.933594 107.238281 218.386719 106.53125 217.601562 106.34375 C 201.289062 102.367188 192.988281 95.851562 188.898438 91.085938 C 188.230469 90.308594 186.90625 90.308594 186.238281 91.085938 C 182.128906 95.875 173.777344 102.417969 157.347656 106.390625 C 156.5625 106.582031 156.007812 107.28125 156.007812 108.082031 C 156.007812 108.886719 156.554688 109.589844 157.339844 109.78125 C 161.742188 110.855469 165.550781 112.109375 168.859375 113.464844 L 168.859375 120.160156 C 162.308594 117.199219 153.683594 115.1875 142.324219 115.1875 C 142.320312 115.1875 142.3125 115.1875 142.3125 115.1875 C 141.578125 115.1875 140.925781 115.648438 140.675781 116.335938 C 140.425781 117.023438 140.632812 117.800781 141.191406 118.273438 C 141.265625 118.332031 148.210938 124.394531 149.175781 140.742188 C 149.183594 140.84375 149.199219 140.945312 149.222656 141.042969 C 148.730469 142.796875 148.457031 144.644531 148.457031 146.550781 C 148.457031 147.386719 148.515625 148.207031 148.613281 149.015625 C 148.523438 150.730469 148.472656 152.449219 148.472656 154.160156 C 148.472656 162.054688 149.449219 169.144531 151.355469 175.300781 C 138.703125 172.410156 128.855469 174.179688 128.667969 174.214844 C 127.71875 174.398438 127.097656 175.3125 127.28125 176.261719 C 127.460938 177.207031 128.382812 177.824219 129.324219 177.648438 C 129.515625 177.613281 139.863281 175.773438 152.75 179.238281 C 153.035156 179.9375 153.328125 180.621094 153.636719 181.289062 C 146.25 179.769531 137.878906 179.445312 128.664062 181.25 C 127.738281 181.433594 127.125 182.308594 127.273438 183.242188 L 129.554688 197.480469 C 128.007812 197.964844 126.449219 198.5 124.875 199.097656 C 123.96875 199.441406 123.515625 200.449219 123.855469 201.347656 C 124.199219 202.25 125.214844 202.703125 126.113281 202.363281 C 128.070312 201.621094 130.003906 200.972656 131.910156 200.410156 C 131.945312 200.402344 131.988281 200.402344 132.023438 200.390625 C 146.523438 196.117188 159.527344 196.675781 169.277344 198.492188 C 169.277344 198.492188 169.277344 198.492188 169.28125 198.492188 C 170.804688 198.777344 172.242188 199.089844 173.597656 199.421875 C 176.578125 200.148438 179.144531 200.953125 181.226562 201.703125 C 181.265625 201.71875 181.300781 201.730469 181.339844 201.746094 C 181.492188 201.800781 181.640625 201.851562 181.789062 201.910156 C 181.859375 201.9375 181.929688 201.960938 182 201.988281 C 182.105469 202.027344 182.214844 202.066406 182.316406 202.105469 C 182.417969 202.148438 182.515625 202.183594 182.617188 202.222656 C 182.679688 202.246094 182.75 202.273438 182.8125 202.296875 C 182.945312 202.351562 183.066406 202.398438 183.195312 202.449219 C 183.222656 202.460938 183.246094 202.46875 183.273438 202.480469 C 184.6875 203.046875 185.753906 203.527344 186.414062 203.839844 C 186.433594 203.847656 186.449219 203.855469 186.46875 203.863281 C 187.011719 204.121094 187.3125 204.28125 187.335938 204.296875 C 187.601562 204.441406 187.890625 204.511719 188.175781 204.511719 C 188.6875 204.511719 189.644531 203.523438 190.964844 202.765625 C 197.980469 199.878906 215.753906 194.15625 237.660156 199.027344 C 237.855469 199.070312 238.054688 199.117188 238.25 199.160156 C 238.382812 199.191406 238.511719 199.222656 238.640625 199.253906 C 240.054688 199.589844 241.480469 199.972656 242.921875 200.398438 C 242.957031 200.410156 242.996094 200.410156 243.03125 200.417969 C 244.9375 200.980469 246.875 201.628906 248.832031 202.371094 C 249.734375 202.710938 250.746094 202.257812 251.089844 201.355469 C 251.417969 200.445312 250.964844 199.4375 250.058594 199.09375 Z M 212.046875 193.976562 C 210.875 194.09375 209.734375 194.226562 208.625 194.386719 C 203.230469 195.144531 198.609375 196.339844 194.972656 197.519531 C 199.371094 194.039062 205.777344 189.863281 213.875 186.980469 C 215.582031 186.371094 217.363281 185.824219 219.222656 185.351562 C 223.671875 184.214844 228.539062 183.515625 233.785156 183.515625 C 237.023438 183.515625 240.410156 183.78125 243.929688 184.375 L 241.984375 196.492188 L 241.984375 196.503906 C 240.199219 196.019531 238.4375 195.609375 236.710938 195.257812 C 236.386719 195.195312 236.066406 195.128906 235.75 195.070312 C 235.679688 195.058594 235.617188 195.046875 235.550781 195.035156 C 226.875 193.394531 218.925781 193.300781 212.046875 193.976562 Z M 161.140625 187.007812 C 169.195312 189.890625 175.570312 194.046875 179.949219 197.515625 C 176.332031 196.339844 171.734375 195.15625 166.367188 194.394531 C 165.261719 194.238281 164.125 194.101562 162.953125 193.984375 C 160.375 193.730469 157.652344 193.578125 154.792969 193.578125 C 149.625 193.578125 144.023438 194.066406 138.101562 195.277344 C 137.941406 195.308594 137.78125 195.339844 137.621094 195.378906 C 137.4375 195.417969 137.253906 195.453125 137.074219 195.492188 C 135.710938 195.785156 134.335938 196.121094 132.945312 196.5 L 132.945312 196.488281 L 131 184.371094 C 140.25 182.8125 148.5625 183.511719 155.78125 185.359375 C 157.640625 185.839844 159.425781 186.398438 161.140625 187.007812 Z M 216.910156 182.355469 C 212.621094 183.558594 208.71875 185.140625 205.234375 186.882812 C 209.441406 184.066406 213.710938 182.039062 217.820312 180.585938 C 217.527344 181.1875 217.230469 181.78125 216.910156 182.355469 Z M 187.976562 165.199219 L 187.460938 166.230469 L 186.949219 165.199219 L 186.074219 163.457031 L 185.164062 161.625 L 187.457031 159.332031 L 189.757812 161.625 L 188.847656 163.457031 Z M 193.128906 160.042969 L 188.703125 155.628906 C 188.042969 154.972656 186.882812 154.976562 186.226562 155.628906 L 181.800781 160.042969 C 181.269531 160.574219 181.132812 161.382812 181.46875 162.054688 L 182.167969 163.457031 L 168.902344 163.457031 C 160.359375 163.457031 153.277344 157.113281 152.125 148.902344 C 152.015625 148.128906 151.957031 147.347656 151.957031 146.546875 C 151.957031 145.558594 152.050781 144.589844 152.210938 143.644531 C 153.59375 135.703125 160.550781 129.640625 168.90625 129.640625 C 174.972656 129.640625 180.328125 132.804688 183.324219 137.640625 C 185.21875 141.328125 185.65625 144.222656 185.722656 144.722656 C 185.722656 144.726562 185.722656 144.726562 185.722656 144.730469 C 185.722656 144.742188 185.726562 144.757812 185.726562 144.765625 C 185.730469 144.8125 185.746094 144.847656 185.75 144.890625 C 185.761719 144.953125 185.769531 145.019531 185.789062 145.078125 C 185.808594 145.148438 185.839844 145.210938 185.871094 145.28125 C 185.886719 145.3125 185.898438 145.347656 185.914062 145.375 C 186.015625 145.570312 186.15625 145.742188 186.320312 145.882812 C 186.335938 145.894531 186.351562 145.910156 186.367188 145.921875 C 186.433594 145.976562 186.507812 146.027344 186.585938 146.070312 C 186.609375 146.082031 186.632812 146.09375 186.652344 146.105469 C 186.730469 146.148438 186.808594 146.183594 186.890625 146.210938 C 186.914062 146.21875 186.9375 146.222656 186.964844 146.230469 C 187.046875 146.253906 187.136719 146.273438 187.222656 146.285156 C 187.234375 146.285156 187.242188 146.289062 187.253906 146.292969 C 187.296875 146.296875 187.335938 146.296875 187.375 146.300781 C 187.402344 146.300781 187.425781 146.308594 187.453125 146.308594 C 187.460938 146.308594 187.472656 146.308594 187.476562 146.308594 C 187.480469 146.308594 187.484375 146.308594 187.488281 146.308594 C 187.503906 146.308594 187.519531 146.304688 187.539062 146.304688 C 187.574219 146.304688 187.613281 146.304688 187.648438 146.296875 C 187.664062 146.296875 187.675781 146.292969 187.6875 146.289062 C 188.492188 146.199219 189.140625 145.566406 189.226562 144.746094 C 189.261719 144.453125 189.300781 144.160156 189.347656 143.867188 C 189.570312 142.765625 190.097656 140.761719 191.246094 138.351562 C 194.140625 133.113281 199.722656 129.636719 206.082031 129.636719 C 213.722656 129.636719 220.195312 134.707031 222.300781 141.648438 C 222.773438 143.195312 223.03125 144.84375 223.03125 146.542969 C 223.03125 147.269531 222.980469 147.976562 222.890625 148.675781 C 221.835938 156.996094 214.707031 163.453125 206.082031 163.453125 L 192.753906 163.453125 L 193.453125 162.050781 C 193.796875 161.382812 193.660156 160.574219 193.128906 160.042969 Z M 228.796875 118.757812 C 226.773438 121.707031 224.160156 126.890625 222.941406 135.015625 C 219.25 129.664062 213.074219 126.152344 206.085938 126.152344 C 204.449219 126.152344 202.855469 126.347656 201.328125 126.707031 C 202.335938 126.003906 203.429688 125.328125 204.613281 124.679688 C 204.996094 124.617188 205.332031 124.433594 205.589844 124.164062 C 211.203125 121.304688 218.722656 119.1875 228.796875 118.757812 Z M 164.261719 108.089844 C 176.269531 104.300781 183.410156 99.113281 187.5625 94.8125 C 191.691406 99.089844 198.777344 104.246094 210.667969 108.03125 C 198.65625 111.820312 191.519531 117.007812 187.367188 121.308594 C 183.234375 117.03125 176.152344 111.871094 164.261719 108.089844 Z M 172.355469 115.023438 C 179.21875 118.339844 183.460938 122.035156 186.035156 125.039062 C 186.371094 125.421875 186.851562 125.648438 187.367188 125.648438 C 187.878906 125.648438 188.363281 125.425781 188.699219 125.039062 C 191.300781 122.003906 195.605469 118.273438 202.574219 114.933594 L 202.574219 121.945312 C 195.808594 125.796875 191.722656 130.683594 189.277344 134.914062 C 188.59375 135.890625 188 136.933594 187.5 138.023438 C 186.914062 136.75 186.199219 135.546875 185.378906 134.433594 C 182.902344 130.316406 178.875 125.648438 172.359375 121.945312 L 172.359375 115.023438 Z M 146.152344 118.757812 C 156.214844 119.1875 163.726562 121.308594 169.335938 124.167969 C 169.59375 124.433594 169.929688 124.617188 170.308594 124.679688 C 171.476562 125.320312 172.558594 125.988281 173.558594 126.683594 C 172.058594 126.335938 170.5 126.15625 168.902344 126.15625 C 161.9375 126.15625 155.777344 129.652344 152.082031 134.976562 C 150.839844 126.882812 148.195312 121.707031 146.152344 118.757812 Z M 152.066406 158.101562 C 155.753906 163.4375 161.929688 166.945312 168.90625 166.945312 L 183.910156 166.945312 L 185.898438 170.925781 C 186.191406 171.515625 186.796875 171.890625 187.460938 171.890625 C 188.125 171.890625 188.734375 171.515625 189.027344 170.925781 L 191.015625 166.945312 L 206.082031 166.945312 C 213.0625 166.945312 219.230469 163.4375 222.921875 158.101562 C 222.613281 164.949219 221.492188 171.0625 219.597656 176.339844 C 209.054688 179.476562 197.167969 186.035156 187.457031 199.296875 C 177.769531 186.0625 165.914062 179.503906 155.390625 176.355469 C 153.496094 171.074219 152.371094 164.957031 152.066406 158.101562 Z M 157.183594 180.617188 C 161.261719 182.066406 165.503906 184.085938 169.679688 186.878906 C 166.21875 185.148438 162.34375 183.578125 158.085938 182.375 C 157.777344 181.800781 157.472656 181.214844 157.183594 180.617188 Z M 157.183594 180.617188 "/>
</g>
</g>
</svg>
